<?xml version="1.0" encoding="UTF-8"?>
<svg id="a" data-name="Layer 1" xmlns="http://www.w3.org/2000/svg" xmlns:xlink="http://www.w3.org/1999/xlink" viewBox="0 0 400 400">
  <defs>
    <linearGradient id="b" x1="183.745" y1="233.521" x2="228.611" y2="233.521" gradientUnits="userSpaceOnUse">
      <stop offset=".414" stop-color="#ffcb74"/>
      <stop offset=".43" stop-color="#fecd74"/>
      <stop offset=".612" stop-color="#f9df76"/>
      <stop offset=".8" stop-color="#f6eb77"/>
      <stop offset="1" stop-color="#f6ef78"/>
    </linearGradient>
  </defs>
  <path d="M152.507,167.463c4.203,0,8.405,0,12.608,0,34.771,0,69.541-.002,104.312,.001,9.362,0,12.021,2.691,12.022,12.148,.002,30.516,.004,61.033-.001,91.549-.001,8.455-2.466,10.941-10.851,10.942-46.995,.004-93.989,.004-140.984,0-8.64,0-11.06-2.446-11.061-11.157-.002-39.468-.003-78.935,0-118.403,0-9.081,2.841-12.279,11.897-13.659,31.43-4.788,62.853-9.617,94.281-14.412,14.177-2.163,28.363-4.272,42.542-6.425,5.334-.81,8.537,1.601,9.334,6.987,.673,4.544,1.429,9.076,2.185,13.607,.919,5.51-1.494,8.985-6.917,9.811-26.886,4.097-53.77,8.208-80.663,12.257-11.91,1.793-23.842,3.44-35.759,5.184-1.02,.149-2.005,.534-3.006,.809,.02,.254,.04,.507,.059,.761Zm114.923,31.018H132.683v69.293h134.747v-69.293Zm3.71-.148v4.907c0,21.287-.079,42.575,.075,63.861,.026,3.607-1.083,4.585-4.636,4.576-44.265-.109-88.53-.121-132.795,.012-4.071,.012-5.016-1.416-4.991-5.182,.141-21.151,.072-42.303,.057-63.455-.001-1.554-.147-3.108-.225-4.638h-6.284v4.304c0,22.914-.005,45.829,.003,68.743,.002,6.132,.699,6.852,6.721,6.853,47.252,.008,94.505,.007,141.757,.001,6.301,0,6.83-.514,6.833-6.663,.011-23.05,.007-46.1-.004-69.15,0-1.322-.122-2.643-.197-4.171h-6.314Zm-39.947-70.829c3.321,7.137,6.321,13.75,9.537,20.256,.339,.687,2.009,1.162,2.965,1.031,9.494-1.3,18.968-2.744,28.447-4.156,2.574-.383,3.333-2.109,3.018-4.402-.642-4.675-1.293-9.352-2.117-13.997-.786-4.431-1.832-5.051-6.382-4.374-7.343,1.093-14.694,2.131-22.029,3.276-4.338,.677-8.651,1.517-13.439,2.365Zm-108.635,66.82c9.527,0,18.593,0,27.659,0q6.993,0,8.887-6.57c1.552-5.355,3.128-10.703,4.825-16.504-3.959,0-7.215-.213-10.419,.103-1.319,.13-2.973,1.1-3.71,2.199-4.919,7.337-15.173,7.929-20.038,.559-2.077-3.146-4.158-3.07-7.205-2.563v22.776Zm155.076-.187c0-6.259,.091-12.071-.037-17.878-.069-3.133-1.687-5.015-5.084-5.002-6.771,.025-13.543-.062-20.312,.062-.986,.018-2.597,.736-2.832,1.475-2.227,6.995-4.218,14.065-6.345,21.343h34.61Zm-121.177-32.205c-3.297-6.951-6.456-13.748-9.805-20.451-.314-.628-1.87-1.026-2.769-.91-5.482,.707-11.028,1.249-16.36,2.603-1.929,.49-4.583,2.953-4.741,4.711-.573,6.357-.225,12.797-.225,19.373,1.883-.337,3.323-.594,4.695-.84,1.367-5.683,4.237-9.846,10.162-10.959,4.673-.878,8.781,.851,11.387,4.552,2.119,3.01,4.261,3.018,7.657,1.921Zm34.882-5.09c-3.364-7.145-6.491-13.853-9.714-20.514-.291-.601-1.269-1.354-1.817-1.274-5.972,.868-11.921,1.888-18.265,2.931,3.574,7.527,6.915,14.561,10.358,21.812,6.51-.99,12.754-1.939,19.438-2.954Zm4.997-24.227c3.325,7.08,6.421,13.8,9.69,20.435,.34,.69,1.777,1.326,2.6,1.214,5.576-.757,11.123-1.722,17.391-2.735-3.34-7.198-6.398-13.921-9.64-20.554-.308-.631-1.821-1.08-2.689-.966-5.604,.738-11.183,1.656-17.353,2.605Zm-23.78,61.703c6.275,0,11.948,.059,17.616-.064,.846-.018,2.211-.725,2.428-1.402,2.236-6.983,4.285-14.025,6.546-21.585-6.476,0-12.273-.067-18.064,.082-.751,.019-1.899,1.018-2.143,1.791-2.154,6.808-4.145,13.667-6.383,21.179Zm35.238,0c6.231,0,11.787,.08,17.336-.076,.958-.027,2.483-.859,2.737-1.645,2.235-6.904,4.241-13.883,6.463-21.334-6.354,0-12.172-.07-17.985,.082-.787,.021-2.001,1.007-2.246,1.787-2.14,6.821-4.104,13.697-6.305,21.186Zm-76.457-27.197c-.243,4.506,3.29,8.255,7.977,8.464,4.555,.203,8.348-3.334,8.491-7.919,.141-4.502-3.209-8.278-7.507-8.462-4.985-.213-8.699,3.068-8.961,7.917Zm72.587,27.033c2.259-7.534,4.49-14.975,7.055-23.531-3.359,.747-7.463,.637-7.985,1.948-2.753,6.918-4.604,14.195-6.839,21.583h7.769Zm-42.803-.577c.248,.458,.496,.916,.745,1.373,2.426-.752,6.41-.877,7.009-2.363,2.694-6.686,4.428-13.757,6.72-21.399-3.248,.958-6.845-2.168-8.347,2.401-2.175,6.619-4.097,13.321-6.127,19.988Zm70.262,.561h7.776c2.205-7.47,4.403-14.916,6.785-22.988-3.217,.916-6.842-2.017-8.279,2.18-2.318,6.767-4.162,13.696-6.282,20.808Zm-1.423-43.142c2.804-.42,5.021-.753,7.603-1.14-2.628-5.701-5.099-11.066-7.573-16.431-2.842-6.164-3.502-6.415-10.163-3.772,3.358,7.073,6.711,14.136,10.133,21.342Zm-62.149,9.013c-2.716-5.774-5.244-11.279-7.887-16.728-2.587-5.333-3.704-5.672-9.615-3.081,2.531,5.378,5.11,10.727,7.572,16.129,2.6,5.705,2.838,5.846,9.929,3.68Zm17.066-25.463c2.583,5.436,5.123,10.473,7.389,15.629,2.785,6.334,2.687,6.38,9.377,5.02,.244-.05,.461-.234,.931-.483-2.435-5.226-4.812-10.497-7.335-15.698-2.925-6.032-2.98-6.005-10.363-4.468Z" fill="#e1909e"/>
  <path d="M228.611,233.442c-14.937,8.344-29.01,16.206-43.87,24.508-.421-2.667-.935-4.446-.945-6.227-.069-13.018-.063-26.037-.017-39.055,.013-3.663,1.089-4.374,4-2.758,12.521,6.951,25.025,13.935,37.519,20.935,.785,.44,1.438,1.114,3.313,2.598Zm-40.744-19.349v37.887c11.485-6.432,22.446-12.57,33.868-18.967-11.549-6.451-22.466-12.55-33.868-18.92Z" fill="url(#b)"/>
</svg>