<?xml version="1.0" encoding="UTF-8"?>
<svg id="b" data-name="Layer 2" xmlns="http://www.w3.org/2000/svg" xmlns:xlink="http://www.w3.org/1999/xlink" viewBox="0 0 223.583 59.939">
  <defs>
    <clipPath id="d">
      <path d="M22.283,36.079l-5.024,11.568c-.18,.468-.47,.508-.759,.549l-7.332,1.022c-.241,.034-.296-.008-.191-.317l7.696-17.792-.067-.482L5.176,16.732c-.233-.263-.199-.366,.042-.399l7.958-1.11c.241-.034,.448,.036,.626,.257l6.734,8.797,.531-.074,3.883-10.229c.146-.365,.429-.453,.67-.487l7.524-1.05c.241-.034,.406,.091,.288,.304l-6.934,16.211,.101,.723,12.217,14.965c.288,.304,.205,.414-.036,.448l-7.766,1.083c-.289,.04-.399-.043-.578-.264l-7.723-9.888-.434,.061ZM43.942,11.77c-.028-.291,.06-.397,.302-.421l7.078-.682c.242-.023,.349,.064,.372,.307l3.1,32.189c.033,.339-.104,.45-.346,.474l-6.835,.659c-.436,.042-.552-.143-.612-.773l-3.059-31.752Zm19.618-1.772c-.018-.292,.074-.395,.317-.409l7.098-.412c.243-.014,.346,.077,.36,.32l1.519,26.155,13.175-.765c.583-.034,.706,.398,.72,.641l.297,5.104c.025,.438,.045,.778-.539,.812l-20.515,1.191c-.438,.025-.541-.066-.555-.309l-1.877-32.329Zm30.265-1.518c-.004-.292,.093-.391,.336-.394l21.23-.266c.438-.006,.584-.008,.59,.431l.073,5.843c.003,.292-.435,.298-.824,.303l-13.537,.169,.092,7.304,10.174-.273c.438-.006,.685,.186,.689,.625l.07,5.55c.007,.536-.139,.635-.625,.641l-10.228-.018,.151,12.027c.007,.536-.235,.685-.625,.689l-6.622,.083c-.438,.006-.538-.188-.546-.821l-.399-31.893Zm53.876,6.532c-.01,.292-.448,.277-.837,.264l-8.275-.28-.883,26.09c-.009,.243-.161,.433-.404,.425l-6.863-.232c-.438-.015-.53-.164-.516-.602l.878-25.944-8.421-.285c-.486-.016-.675-.218-.665-.51l.187-5.5c.003-.098,.02-.584,.604-.564l24.825,.84c.438,.015,.584,.02,.569,.458l-.198,5.841Zm8.796-5.329c.024-.292,.129-.381,.372-.361l21.162,1.73c.389,.032,.583,.047,.547,.484l-.476,5.825c-.024,.291-.461,.255-.85,.224l-13.493-1.103-.52,6.358,9.671,.644c.437,.036,.663,.25,.628,.687l-.444,5.436c-.044,.534-.197,.619-.683,.58l-9.7-.891-.579,7.087,13.882,1.134c.583,.048,.645,.493,.624,.735l-.416,5.097c-.036,.437-.063,.776-.889,.709l-20.969-1.714c-.437-.036-.518-.238-.467-.869l2.599-31.792Zm36.959,3.119c.387,.052,.753,.248,.907,.563l10.184,19.691,.29,.039,2.413-18.002c.039-.29,.059-.435,.492-.376l6.178,.828c.483,.064,.512,.216,.467,.554l-4.231,31.565c-.078,.579-.297,.746-.827,.675l-4.006-.537c-.628-.084-.885-.364-1.081-.734l-10.357-19.862-.241-.032-2.445,18.244c-.032,.241-.161,.469-.499,.424l-6.274-.841c-.29-.039-.415-.203-.356-.637l4.244-31.661c.045-.338,.222-.56,.608-.508l4.536,.608Z" fill="none"/>
    </clipPath>
    <linearGradient id="e" x1="198.266" y1="107.814" x2="26.145" y2="-64.308" gradientUnits="userSpaceOnUse">
      <stop offset=".414" stop-color="#ffcb74"/>
      <stop offset=".43" stop-color="#fecd74"/>
      <stop offset=".612" stop-color="#f9df76"/>
      <stop offset=".8" stop-color="#f6eb77"/>
      <stop offset="1" stop-color="#f6ef78"/>
    </linearGradient>
  </defs>
  <g id="c" data-name="Layer 1">
    <g clip-path="url(#d)">
      <rect x="-5.724" y="-32.438" width="235.86" height="108.383" fill="url(#e)" stroke="#231f20" stroke-miterlimit="10" stroke-width=".25"/>
    </g>
  </g>
</svg>